PathFileType	4	(X/Y/Z)	/Users/itak/Documents/Research/Walk-IL/dataset/trc/00527_00183.trc
DataRate	CameraRate	NumFrames	NumMarkers	Units	OrigDataRate	OrigDataStartFrame	OrigNumFrames
100.000000	100.000000	4	53	mm	100.000000	119	477
Frame#	Time	RPSI			LPSI			L3			STRN			T10			C7			CLAV			RBAK			LBAK			LSHO			LUPA			LAEL			LAOL			LWTS			LWPS			LFRA			LIFD			LHPS			LHTS			RSHO			RUPA			RAEL			RAOL			RWTS			RWPS			RFRA			RIFD			RHTS			RHPS			RBHD			LFHD			RFHD			LBHD			LHIP			RHIP			RASI			LASI			LKNE			LTHI			LANK			LTIP			LTOE			LMT1			LMT5			LHEE			RKNE			RTHI			RANK			RTIP			RTOE			RMT1			RMT5			RHEE			
		X1	Y1	Z1	X2	Y2	Z2	X3	Y3	Z3	X4	Y4	Z4	X5	Y5	Z5	X6	Y6	Z6	X7	Y7	Z7	X8	Y8	Z8	X9	Y9	Z9	X10	Y10	Z10	X11	Y11	Z11	X12	Y12	Z12	X13	Y13	Z13	X14	Y14	Z14	X15	Y15	Z15	X16	Y16	Z16	X17	Y17	Z17	X18	Y18	Z18	X19	Y19	Z19	X20	Y20	Z20	X21	Y21	Z21	X22	Y22	Z22	X23	Y23	Z23	X24	Y24	Z24	X25	Y25	Z25	X26	Y26	Z26	X27	Y27	Z27	X28	Y28	Z28	X29	Y29	Z29	X30	Y30	Z30	X31	Y31	Z31	X32	Y32	Z32	X33	Y33	Z33	X34	Y34	Z34	X35	Y35	Z35	X36	Y36	Z36	X37	Y37	Z37	X38	Y38	Z38	X39	Y39	Z39	X40	Y40	Z40	X41	Y41	Z41	X42	Y42	Z42	X43	Y43	Z43	X44	Y44	Z44	X45	Y45	Z45	X46	Y46	Z46	X47	Y47	Z47	X48	Y48	Z48	X49	Y49	Z49	X50	Y50	Z50	X51	Y51	Z51	X52	Y52	Z52	X53	Y53	Z53	

120	1.19	-1140.715087890625	974.9237060546875	-471.5167541503906	-1080.453369140625	972.8897094726562	-579.3838500976562	-1109.51708984375	1039.51806640625	-526.69140625	-904.976806640625	1199.5205078125	-424.1511535644531	-1122.168334960938	1146.787475585938	-524.55908203125	-1081.3486328125	1375.1572265625	-492.8419494628906	-938.6319580078125	1295.063110351562	-435.8990478515625	-1159.549926757812	1251.41943359375	-438.573974609375	-1069.6103515625	1325.406860351562	-585.106201171875	-952.4833374023438	1370.912353515625	-612.9234008789062	-941.7816162109375	1247.171020507812	-678.9091186523438	-924.1600952148438	1037.464233398438	-703.1454467773438	-1020.036987304688	1029.686401367188	-675.5385131835938	-867.3029174804688	845.9255981445312	-635.682373046875	-917.6614379882812	813.4981689453125	-708.4016723632812	-910.0778198242188	952.2567138671875	-700.2874755859375	-871.9181518554688	688.7106323242188	-629.4669799804688	-899.5288696289062	759.0914916992188	-694.5283813476562	-852.0718994140625	767.9981689453125	-651.2092895507812	-1089.140747070312	1363.1689453125	-335.4361267089844	-1128.014038085938	1294.555908203125	-291.6841735839844	-1136.660522460938	1024.961791992188	-256.894287109375	-1171.043701171875	1010.104248046875	-311.4956359863281	-1031.236328125	822.4107055664062	-250.6299133300781	-1119.799682617188	801.7391967773438	-244.1733551025391	-1134.288696289062	970.528564453125	-250.4344024658203	-1036.098754882812	661.9456787109375	-250.277587890625	-1032.054321289062	728.1574096679688	-223.566162109375	-1102.16845703125	728.4201049804688	-234.1042938232422	-1103.218383789062	1508.530517578125	-408.5632629394531	-939.2718505859375	1608.369262695312	-466.8461303710938	-1004.54248046875	1590.9013671875	-358.735107421875	-1033.35107421875	1523.174072265625	-550.7581787109375	-919.9328002929688	895.6192016601562	-637.7166137695312	-1116.609497070312	872.7634887695312	-313.5965881347656	-993.9097290039062	911.3112182617188	-320.1846923828125	-878.1187744140625	924.919189453125	-530.7374877929688	-945.3529052734375	469.3377075195312	-587.7020874023438	-916.4456787109375	626.3704223632812	-607.1284790039062	-1059.391723632812	49.94721221923828	-619.0973510742188	-978.8577270507812	318.2776489257812	-602.428955078125	-919.33544921875	39.26698684692383	-467.0503845214844	-1001.884521484375	43.43058013916016	-479.4898376464844	-959.7554321289062	46.26206207275391	-572.0202026367188	-1130.986083984375	48.26758575439453	-588.3001098632812	-1109.74267578125	484.8605041503906	-325.4834899902344	-1100.962524414062	745.02880859375	-295.7513122558594	-1199.308349609375	48.86887741088867	-368.2827758789062	-1114.484252929688	338.1590881347656	-333.5762939453125	-1001.925415039062	50.1262321472168	-321.3375549316406	-1044.785034179688	52.25442886352539	-383.9895324707031	-1103.480346679688	45.89775466918945	-306.2417602539062	-1227.18359375	41.135009765625	-434.4395751953125	
121	1.2	-1139.903930664062	974.7946166992188	-473.0393981933594	-1079.569091796875	972.8136596679688	-580.7965087890625	-1108.017578125	1039.883666992188	-527.92333984375	-903.2971801757812	1199.276733398438	-425.19189453125	-1120.358764648438	1146.963500976562	-525.756103515625	-1079.313354492188	1375.26904296875	-493.8149719238281	-936.8375244140625	1294.85205078125	-436.8189086914062	-1157.877319335938	1251.59423828125	-439.7999877929688	-1067.616333007812	1325.612670898438	-586.056640625	-950.3836059570312	1370.968505859375	-613.7172241210938	-939.7653198242188	1247.333374023438	-679.87548828125	-922.4223022460938	1037.61572265625	-704.383056640625	-1018.294860839844	1029.905151367188	-676.8071899414062	-866.1055908203125	845.7564086914062	-637.04833984375	-916.4893798828125	813.53662109375	-709.8510131835938	-908.5089721679688	952.3363647460938	-701.5807495117188	-871.1188354492188	688.540283203125	-631.0108032226562	-898.5275268554688	759.1007080078125	-696.0497436523438	-851.08935546875	767.792724609375	-652.6546630859375	-1087.320190429688	1363.042114257812	-336.40283203125	-1126.30810546875	1294.411743164062	-292.7642517089844	-1135.07421875	1024.813232421875	-258.1231384277344	-1169.44287109375	1009.98974609375	-312.7767333984375	-1029.645263671875	822.3076782226562	-251.7449035644531	-1118.235961914062	801.6187744140625	-245.4523315429688	-1132.69580078125	970.3748779296875	-251.6922454833984	-1034.511108398438	661.8319702148438	-251.261962890625	-1030.520751953125	728.0499267578125	-224.5744476318359	-1100.613891601562	728.2913818359375	-235.2947845458984	-1101.715698242188	1507.864135742188	-409.3821716308594	-937.89697265625	1608.557006835938	-466.7318725585938	-1003.539001464844	1590.484130859375	-358.9089660644531	-1031.345703125	1523.228393554688	-551.2557983398438	-918.8173217773438	895.4172973632812	-638.8751831054688	-1115.915405273438	872.598388671875	-314.8720092773438	-993.4302978515625	911.3564453125	-321.5789794921875	-877.1273803710938	924.7216796875	-531.8154907226562	-944.6409301757812	469.0979614257812	-588.8327026367188	-915.6488037109375	626.1481323242188	-608.2710571289062	-1059.2333984375	49.67565155029297	-619.3402099609375	-978.1998901367188	318.0930786132812	-603.1871337890625	-919.4600219726562	39.29531860351562	-467.0311889648438	-1001.883972167969	43.51692962646484	-479.6107788085938	-959.68017578125	46.10089111328125	-572.193359375	-1130.866821289062	48.19620132446289	-588.4933471679688	-1104.83349609375	484.6270141601562	-325.7850952148438	-1099.3671875	744.8010864257812	-296.977294921875	-1198.82861328125	49.69224548339844	-368.4054870605469	-1110.220947265625	337.7680969238281	-333.0696716308594	-1001.655517578125	49.71294403076172	-321.3993835449219	-1044.409912109375	51.90215301513672	-384.0842895507812	-1103.152099609375	46.00488662719727	-306.3016967773438	-1226.780395507812	42.44807815551758	-434.542724609375	
122	1.21	-1139.129272460938	974.626220703125	-474.5801086425781	-1078.612915039062	972.7102661132812	-582.1746215820312	-1106.550659179688	1040.296264648438	-529.1739501953125	-901.6188354492188	1199.005737304688	-426.1733703613281	-1118.559448242188	1147.15869140625	-526.9290161132812	-1077.21240234375	1375.394287109375	-494.7808227539062	-935.0191650390625	1294.616333007812	-437.6758117675781	-1156.185180664062	1251.796997070312	-441.0143432617188	-1065.553833007812	1325.808349609375	-586.9800415039062	-948.2018432617188	1370.992797851562	-614.4558715820312	-937.6570434570312	1247.464721679688	-680.7860107421875	-920.5760498046875	1037.740112304688	-705.559326171875	-1016.482971191406	1030.1005859375	-678.1174926757812	-864.8612670898438	845.5781860351562	-638.3212280273438	-915.1448364257812	813.5745239257812	-711.2870483398438	-906.8123779296875	952.415283203125	-702.822265625	-870.3536376953125	688.3240356445312	-632.546630859375	-897.367431640625	759.092529296875	-697.5505981445312	-850.0349731445312	767.567626953125	-653.9925537109375	-1085.4775390625	1362.932739257812	-337.338134765625	-1124.592895507812	1294.291259765625	-293.8287353515625	-1133.498046875	1024.674560546875	-259.3844909667969	-1167.855224609375	1009.894592285156	-314.0847778320312	-1027.98388671875	822.2666015625	-252.9307861328125	-1116.58984375	801.5061645507812	-246.7969207763672	-1131.096313476562	970.2200927734375	-252.9936676025391	-1032.767578125	661.7691040039062	-252.3612823486328	-1028.860107421875	727.9928588867188	-225.6841735839844	-1098.935180664062	728.1759033203125	-236.5668182373047	-1100.149780273438	1507.236328125	-410.2303771972656	-936.4254150390625	1608.71044921875	-466.6361389160156	-1002.4580078125	1590.070190429688	-359.1064453125	-1029.24755859375	1523.252685546875	-551.7662353515625	-917.7146606445312	895.1881103515625	-639.999267578125	-1115.328979492188	872.3522338867188	-316.2006530761719	-993.0416259765625	911.3667602539062	-322.9574279785156	-876.1485595703125	924.5045166015625	-532.8395385742188	-943.9507446289062	468.8650512695312	-589.9368286132812	-914.8289184570312	625.9205932617188	-609.3478393554688	-1059.0791015625	49.42134475708008	-619.5596313476562	-977.5369262695312	317.9100646972656	-603.9246215820312	-919.5845336914062	39.32130432128906	-467.0008544921875	-1001.88818359375	43.59444046020508	-479.7251281738281	-959.61328125	45.96987915039062	-572.3469848632812	-1130.796630859375	48.13597869873047	-588.6611328125	-1099.464233398438	484.4400024414062	-325.9987182617188	-1097.7109375	744.5139770507812	-298.2276306152344	-1198.24072265625	50.80998611450195	-368.5737609863281	-1105.624389648438	337.4622802734375	-332.3945922851562	-1001.338256835938	49.25957107543945	-321.415283203125	-1043.958984375	51.56595993041992	-384.1393432617188	-1102.767700195312	46.19767761230469	-306.35595703125	-1226.228881835938	44.15707397460938	-434.7179565429688	
123	1.22	-1138.393310546875	974.4005737304688	-476.14306640625	-1077.535278320312	972.5604858398438	-583.504638671875	-1105.1259765625	1040.757446289062	-530.4531860351562	-899.9549560546875	1198.699584960938	-427.0875244140625	-1116.765625	1147.3740234375	-528.071533203125	-1075.04541015625	1375.533569335938	-495.7274475097656	-933.17919921875	1294.35302734375	-438.4626159667969	-1154.47216796875	1252.026245117188	-442.2021789550781	-1063.419799804688	1325.993408203125	-587.8668212890625	-945.9396362304688	1370.98681640625	-615.1329345703125	-935.4597778320312	1247.560913085938	-681.6287841796875	-918.6138916015625	1037.838134765625	-706.669921875	-1014.602233886719	1030.276489257812	-679.46875	-863.5615844726562	845.3856201171875	-639.5032348632812	-913.6236572265625	813.61328125	-712.708251953125	-904.9879760742188	952.4868774414062	-704.0079345703125	-869.6227416992188	688.06982421875	-634.0853271484375	-896.04931640625	759.0751953125	-699.0281372070312	-848.8944702148438	767.3357543945312	-655.2249755859375	-1083.617065429688	1362.835327148438	-338.2304382324219	-1122.871337890625	1294.185546875	-294.8695373535156	-1131.934692382812	1024.534301757812	-260.668212890625	-1166.288330078125	1009.805603027344	-315.4027099609375	-1026.256591796875	822.2785034179688	-254.1885375976562	-1114.861450195312	801.3922119140625	-248.2023468017578	-1129.497314453125	970.0545654296875	-254.3269348144531	-1030.864135742188	661.75048828125	-253.5859375	-1027.073364257812	727.9808959960938	-226.9005584716797	-1097.12939453125	728.0719604492188	-237.9281311035156	-1098.517456054688	1506.649536132812	-411.0958557128906	-934.8623657226562	1608.833251953125	-466.5558776855469	-1001.302062988281	1589.669555664062	-359.3288879394531	-1027.058959960938	1523.244750976562	-552.2826538085938	-916.6101684570312	894.9319458007812	-641.0809936523438	-1114.845947265625	872.0376586914062	-317.5821533203125	-992.73974609375	911.3505859375	-324.3095703125	-875.1721801757812	924.2757568359375	-533.8027954101562	-943.2977905273438	468.6305541992188	-590.9842529296875	-913.979736328125	625.6845092773438	-610.3310546875	-1058.938598632812	49.19393157958984	-619.7542724609375	-976.91455078125	317.7069396972656	-604.63427734375	-919.7039184570312	39.34470748901367	-466.9652709960938	-1001.898010253906	43.66135025024414	-479.828857421875	-959.5580444335938	45.87107467651367	-572.4736328125	-1130.7666015625	48.07762145996094	-588.8123779296875	-1093.664184570312	484.3409423828125	-326.090087890625	-1095.995727539062	744.1865234375	-299.4782104492188	-1197.535888671875	52.26364517211914	-368.8113098144531	-1100.728881835938	337.2916870117188	-331.5513610839844	-1000.991882324219	48.78597259521484	-321.3551330566406	-1043.417602539062	51.27199554443359	-384.14013671875	-1102.34716796875	46.49797821044922	-306.4028625488281	-1225.5	46.30416870117188	-434.9931945800781	
